<svg width="36" height="36" viewBox="0 0 36 36" fill="none" xmlns="http://www.w3.org/2000/svg">
<path fill-rule="evenodd" clip-rule="evenodd" d="M34.2866 0.723644C33.3218 -0.241215 31.7573 -0.241215 30.7925 0.723644L17.616 13.9002L5.43945 1.72369C4.41345 0.697689 2.74988 0.697689 1.724 1.72369C0.697998 2.74968 0.697998 4.41316 1.724 5.43914L13.9005 17.6157L0.723633 30.7926C-0.241211 31.7574 -0.241211 33.3218 0.723633 34.2866C1.68848 35.2515 3.25281 35.2515 4.21765 34.2866L17.3945 21.1097L29.5714 33.2866C30.5974 34.3126 32.2609 34.3126 33.2869 33.2866C34.3129 32.2606 34.3129 30.5972 33.2869 29.5712L21.11 17.3943L34.2866 4.21769C35.2515 3.25285 35.2515 1.6885 34.2866 0.723644Z" fill="#ACACAC"/>
</svg>
